<svg id="logosandtypes_com" xmlns="http://www.w3.org/2000/svg" viewBox="0 0 150 150.2"><path d="M0 .2h150v150H0V.2z" fill="none"/><g><path d="M134.3 72.7c0-33.9-26.5-59.5-59.3-59.5S15.8 38.8 15.8 72.8c0 34.1 26.5 59.5 59.3 59.5 5.6 0 11-.8 16.1-2.2l6.4 16.6c.7 1.8 2 2.9 4.4 2.9h10.2c2.5 0 4.3-1.6 3.1-4.7l-8.3-21.7c16.4-10.3 27.3-28.6 27.3-50.5zm-33.5 34.7L93.3 88c-.7-1.6-2-3.1-4.8-3.1h-9.8c-2.5 0-4.4 1.6-3.2 4.7l9.9 25.5c-3.2.9-6.7 1.2-10.3 1.2C51 116.3 34 97.5 34 72.8s17-43.5 41-43.5 41.1 18.9 41.1 43.5c0 14.4-5.8 26.7-15.3 34.6z" fill="#3254dc"/></g></svg>